<?xml version="1.0" encoding="UTF-8"?><svg id="Layer_1" xmlns="http://www.w3.org/2000/svg" xmlns:xlink="http://www.w3.org/1999/xlink" viewBox="0 0 231 73"><defs><filter id="drop-shadow-8" filterUnits="userSpaceOnUse"><feOffset dx="4" dy="4"/><feGaussianBlur result="blur" stdDeviation="0"/><feFlood flood-color="#000" flood-opacity="1"/><feComposite in2="blur" operator="in"/><feComposite in="SourceGraphic"/></filter></defs><rect x="79.45" y="-79.46" width="71.19" height="230.44" rx="33.22" ry="33.22" transform="translate(79.28 150.8) rotate(-90)" style="fill:#d40000; filter:url(#drop-shadow-8); stroke:#000; stroke-miterlimit:10; stroke-width:2px;"/><g><g><path d="M56.81,46.57l-.49-3.7h-6.61l-1.92,3.7h-4.08l9.56-17.92h4.35l3.16,17.92h-3.97Zm-2-13.9h-.03l-3.56,7.13h4.56l-.97-7.13Z" style="stroke:#000; stroke-miterlimit:10; stroke-width:.25px;"/><path d="M73.69,46.57l.81-4.62c.05-.32,.08-.62,.08-.86,0-1.21-.67-1.54-2.46-1.54h-4l-1.24,7.02h-3.64l3.16-17.92h9.1c2.94,0,4.7,1.83,4.7,4.37,0,2.24-1.32,4.24-3.51,4.97,1.16,.41,1.7,1.03,1.7,2.27,0,.35-.05,.78-.13,1.24l-.89,5.07h-3.67Zm-4.18-14.82l-.84,4.78h4.7c2.35,0,3.21-1.3,3.21-2.86s-.65-1.92-2.24-1.92h-4.83Z" style="stroke:#000; stroke-miterlimit:10; stroke-width:.25px;"/><path d="M85.35,46.57l2.62-14.79h-5.4l.54-3.13h14.58l-.54,3.13h-5.42l-2.62,14.79h-3.75Z" style="stroke:#000; stroke-miterlimit:10; stroke-width:.25px;"/><path d="M110.7,46.57l-.73-11.66-4.89,11.66h-3.51l-1.92-17.92h3.89l.89,11.61,4.54-11.61h3.94l.67,11.61,4.97-11.61h3.94l-8.18,17.92h-3.62Z" style="stroke:#000; stroke-miterlimit:10; stroke-width:.25px;"/><path d="M121.08,39.88c0-6.99,3.97-11.82,10.55-11.82,4.64,0,7.07,2.83,7.07,7.58,0,7.26-3.78,11.55-10.45,11.55-4.67,0-7.18-2.65-7.18-7.32Zm13.88-3.75c0-3.51-1.35-4.75-3.91-4.75-3.97,0-6.24,3.24-6.24,8.1,0,3.4,1.46,4.51,4.02,4.51,3.24,0,6.13-2.51,6.13-7.86Z" style="stroke:#000; stroke-miterlimit:10; stroke-width:.25px;"/><path d="M150.12,46.57l.81-4.62c.05-.32,.08-.62,.08-.86,0-1.21-.67-1.54-2.46-1.54h-4l-1.24,7.02h-3.64l3.16-17.92h9.1c2.94,0,4.7,1.83,4.7,4.37,0,2.24-1.32,4.24-3.51,4.97,1.16,.41,1.7,1.03,1.7,2.27,0,.35-.05,.78-.13,1.24l-.89,5.07h-3.67Zm-4.18-14.82l-.84,4.78h4.7c2.35,0,3.21-1.3,3.21-2.86s-.65-1.92-2.24-1.92h-4.83Z" style="stroke:#000; stroke-miterlimit:10; stroke-width:.25px;"/><path d="M168.03,46.57l-3.91-8.12-2.43,2.02-1.08,6.1h-3.7l3.16-17.92h3.7l-1.24,7.13,7.99-7.13h4.97l-8.31,7.07,5.32,10.85h-4.45Z" style="stroke:#000; stroke-miterlimit:10; stroke-width:.25px;"/><path d="M186.17,33.94c0-.13,.03-.3,.03-.43,0-1.81-1.03-2.29-3.16-2.29-2.35,0-3.59,.89-3.59,2.43,0,.89,.76,1.59,2.43,2,2.19,.54,3.72,.97,5.05,1.57,1.21,.57,2.11,1.51,2.11,3.54,0,4.24-3.78,6.45-7.85,6.45-4.67,0-6.99-1.67-6.99-4.89,0-.35,.03-.7,.08-1.11h3.62c-.03,.22-.05,.4-.05,.59,0,1.7,1.43,2.38,3.4,2.38,2.59,0,4.08-1.11,4.08-2.83,0-.92-.54-1.62-2.4-2.02-4.83-1.05-6.96-1.97-6.96-5.05,0-3.48,2.67-6.21,7.67-6.21,3.94,0,6.18,1.94,6.18,4.97,0,.3-.03,.62-.05,.92h-3.56Z" style="stroke:#000; stroke-miterlimit:10; stroke-width:.25px;"/></g><g><path d="M55.81,44.57l-.49-3.7h-6.61l-1.92,3.7h-4.08l9.56-17.92h4.35l3.16,17.92h-3.97Zm-2-13.9h-.03l-3.56,7.13h4.56l-.97-7.13Z" style="fill:#fff; stroke:#000; stroke-miterlimit:10; stroke-width:.25px;"/><path d="M72.69,44.57l.81-4.62c.05-.32,.08-.62,.08-.86,0-1.21-.67-1.54-2.46-1.54h-4l-1.24,7.02h-3.64l3.16-17.92h9.1c2.94,0,4.7,1.83,4.7,4.37,0,2.24-1.32,4.24-3.51,4.97,1.16,.41,1.7,1.03,1.7,2.27,0,.35-.05,.78-.13,1.24l-.89,5.07h-3.67Zm-4.18-14.82l-.84,4.78h4.7c2.35,0,3.21-1.3,3.21-2.86s-.65-1.92-2.24-1.92h-4.83Z" style="fill:#fff; stroke:#000; stroke-miterlimit:10; stroke-width:.25px;"/><path d="M84.35,44.57l2.62-14.79h-5.4l.54-3.13h14.58l-.54,3.13h-5.42l-2.62,14.79h-3.75Z" style="fill:#fff; stroke:#000; stroke-miterlimit:10; stroke-width:.25px;"/><path d="M109.7,44.57l-.73-11.66-4.89,11.66h-3.51l-1.92-17.92h3.89l.89,11.61,4.54-11.61h3.94l.67,11.61,4.97-11.61h3.94l-8.18,17.92h-3.62Z" style="fill:#fff; stroke:#000; stroke-miterlimit:10; stroke-width:.25px;"/><path d="M120.08,37.88c0-6.99,3.97-11.82,10.55-11.82,4.64,0,7.07,2.83,7.07,7.58,0,7.26-3.78,11.55-10.45,11.55-4.67,0-7.18-2.65-7.18-7.32Zm13.88-3.75c0-3.51-1.35-4.75-3.91-4.75-3.97,0-6.24,3.24-6.24,8.1,0,3.4,1.46,4.51,4.02,4.51,3.24,0,6.13-2.51,6.13-7.86Z" style="fill:#fff; stroke:#000; stroke-miterlimit:10; stroke-width:.25px;"/><path d="M149.12,44.57l.81-4.62c.05-.32,.08-.62,.08-.86,0-1.21-.67-1.54-2.46-1.54h-4l-1.24,7.02h-3.64l3.16-17.92h9.1c2.94,0,4.7,1.83,4.7,4.37,0,2.24-1.32,4.24-3.51,4.97,1.16,.41,1.7,1.03,1.7,2.27,0,.35-.05,.78-.13,1.24l-.89,5.07h-3.67Zm-4.18-14.82l-.84,4.78h4.7c2.35,0,3.21-1.3,3.21-2.86s-.65-1.92-2.24-1.92h-4.83Z" style="fill:#fff; stroke:#000; stroke-miterlimit:10; stroke-width:.25px;"/><path d="M167.03,44.57l-3.91-8.12-2.43,2.02-1.08,6.1h-3.7l3.16-17.92h3.7l-1.24,7.13,7.99-7.13h4.97l-8.31,7.07,5.32,10.85h-4.45Z" style="fill:#fff; stroke:#000; stroke-miterlimit:10; stroke-width:.25px;"/><path d="M185.17,31.94c0-.13,.03-.3,.03-.43,0-1.81-1.03-2.29-3.16-2.29-2.35,0-3.59,.89-3.59,2.43,0,.89,.76,1.59,2.43,2,2.19,.54,3.72,.97,5.05,1.57,1.21,.57,2.11,1.51,2.11,3.54,0,4.24-3.78,6.45-7.85,6.45-4.67,0-6.99-1.67-6.99-4.89,0-.35,.03-.7,.08-1.11h3.62c-.03,.22-.05,.4-.05,.59,0,1.7,1.43,2.38,3.4,2.38,2.59,0,4.08-1.11,4.08-2.83,0-.92-.54-1.62-2.4-2.02-4.83-1.05-6.96-1.97-6.96-5.05,0-3.48,2.67-6.21,7.67-6.21,3.94,0,6.18,1.94,6.18,4.97,0,.3-.03,.62-.05,.92h-3.56Z" style="fill:#fff; stroke:#000; stroke-miterlimit:10; stroke-width:.25px;"/></g></g></svg>