<?xml version="1.0" encoding="UTF-8"?><svg id="Layer_1" xmlns="http://www.w3.org/2000/svg" xmlns:xlink="http://www.w3.org/1999/xlink" viewBox="0 0 231 73"><defs><filter id="drop-shadow-17" filterUnits="userSpaceOnUse"><feOffset dx="4" dy="4"/><feGaussianBlur result="blur" stdDeviation="0"/><feFlood flood-color="#000" flood-opacity="1"/><feComposite in2="blur" operator="in"/><feComposite in="SourceGraphic"/></filter></defs><rect x="79.45" y="-79.46" width="71.19" height="230.44" rx="33.22" ry="33.22" transform="translate(79.28 150.8) rotate(-90)" style="fill:#d40000; filter:url(#drop-shadow-17); stroke:#000; stroke-miterlimit:10; stroke-width:2px;"/><g><g><path d="M66.39,32.75c0-.18,.04-.4,.04-.58,0-2.41-1.37-3.06-4.21-3.06-3.13,0-4.79,1.19-4.79,3.24,0,1.19,1.01,2.12,3.24,2.66,2.92,.72,4.97,1.3,6.73,2.09,1.62,.76,2.81,2.02,2.81,4.71,0,5.65-5.04,8.6-10.47,8.6-6.23,0-9.32-2.23-9.32-6.52,0-.47,.04-.94,.11-1.48h4.82c-.04,.29-.07,.54-.07,.79,0,2.27,1.91,3.17,4.54,3.17,3.46,0,5.43-1.48,5.43-3.78,0-1.22-.72-2.16-3.2-2.7-6.44-1.4-9.29-2.63-9.29-6.73,0-4.64,3.56-8.28,10.22-8.28,5.26,0,8.24,2.59,8.24,6.62,0,.4-.04,.83-.07,1.22h-4.75Z" style="stroke:#000; stroke-miterlimit:10; stroke-width:.25px;"/><path d="M72.3,49.6l4.21-23.9h5l-4.21,23.9h-5Z" style="stroke:#000; stroke-miterlimit:10; stroke-width:.25px;"/><path d="M99.01,49.6l.32-2.38c-1.51,2.02-4.46,3.2-7.74,3.2-5.72,0-8.82-4.97-8.82-10.58,0-7.81,5.26-14.94,14.25-14.94,5.36,0,9.03,3.02,9.03,7.38,0,.25,0,.54-.04,.79h-5.04v-.29c0-2.45-2.05-3.74-4.68-3.74-4.86,0-8.39,4.21-8.39,10.44,0,4.1,1.48,6.73,5.33,6.73,3.28,0,6.26-2.48,6.77-5.47h-5.29l.72-4h9.97l-2.27,12.85h-4.14Z" style="stroke:#000; stroke-miterlimit:10; stroke-width:.25px;"/><path d="M122.05,49.6l-7.52-16.05-2.84,16.05h-4.64l4.21-23.9h5.15l6.95,15.37,2.7-15.37h4.68l-4.21,23.9h-4.46Z" style="stroke:#000; stroke-miterlimit:10; stroke-width:.25px;"/><path d="M159.66,25.69h5.11l-2.81,15.95c-1.01,5.79-5.11,8.78-11.37,8.78-5.08,0-8.13-2.09-8.13-6.44,0-.61,.07-1.33,.22-2.05l2.84-16.23h5.08l-2.77,15.77c-.11,.54-.14,1.04-.14,1.51,0,2.34,1.3,3.31,3.56,3.31,3.2,0,5.08-1.51,5.62-4.64l2.81-15.95Z" style="stroke:#000; stroke-miterlimit:10; stroke-width:.25px;"/><path d="M164.56,49.6l4.21-23.9h10.55c4.1,0,6.44,2.81,6.44,6.48,0,4.93-3.82,8.75-9.14,8.75h-5.54l-1.51,8.67h-5Zm11.99-12.74c3.38,0,4.79-1.91,4.79-4.18,0-2.05-1.04-2.84-3.53-2.84h-4.75l-1.26,7.02h4.75Z" style="stroke:#000; stroke-miterlimit:10; stroke-width:.25px;"/></g><g><path d="M65.39,30.75c0-.18,.04-.4,.04-.58,0-2.41-1.37-3.06-4.21-3.06-3.13,0-4.79,1.19-4.79,3.24,0,1.19,1.01,2.12,3.24,2.66,2.92,.72,4.97,1.3,6.73,2.09,1.62,.76,2.81,2.02,2.81,4.71,0,5.65-5.04,8.6-10.47,8.6-6.23,0-9.32-2.23-9.32-6.52,0-.47,.04-.94,.11-1.48h4.82c-.04,.29-.07,.54-.07,.79,0,2.27,1.91,3.17,4.54,3.17,3.46,0,5.43-1.48,5.43-3.78,0-1.22-.72-2.16-3.2-2.7-6.44-1.4-9.29-2.63-9.29-6.73,0-4.64,3.56-8.28,10.22-8.28,5.26,0,8.24,2.59,8.24,6.62,0,.4-.04,.83-.07,1.22h-4.75Z" style="fill:#fff; stroke:#000; stroke-miterlimit:10; stroke-width:.25px;"/><path d="M71.3,47.6l4.21-23.9h5l-4.21,23.9h-5Z" style="fill:#fff; stroke:#000; stroke-miterlimit:10; stroke-width:.25px;"/><path d="M98.01,47.6l.32-2.38c-1.51,2.02-4.46,3.2-7.74,3.2-5.72,0-8.82-4.97-8.82-10.58,0-7.81,5.26-14.94,14.25-14.94,5.36,0,9.03,3.02,9.03,7.38,0,.25,0,.54-.04,.79h-5.04v-.29c0-2.45-2.05-3.74-4.68-3.74-4.86,0-8.39,4.21-8.39,10.44,0,4.1,1.48,6.73,5.33,6.73,3.28,0,6.26-2.48,6.77-5.47h-5.29l.72-4h9.97l-2.27,12.85h-4.14Z" style="fill:#fff; stroke:#000; stroke-miterlimit:10; stroke-width:.25px;"/><path d="M121.05,47.6l-7.52-16.05-2.84,16.05h-4.64l4.21-23.9h5.15l6.95,15.37,2.7-15.37h4.68l-4.21,23.9h-4.46Z" style="fill:#fff; stroke:#000; stroke-miterlimit:10; stroke-width:.25px;"/><path d="M158.66,23.69h5.11l-2.81,15.95c-1.01,5.79-5.11,8.78-11.37,8.78-5.08,0-8.13-2.09-8.13-6.44,0-.61,.07-1.33,.22-2.05l2.84-16.23h5.08l-2.77,15.77c-.11,.54-.14,1.04-.14,1.51,0,2.34,1.3,3.31,3.56,3.31,3.2,0,5.08-1.51,5.62-4.64l2.81-15.95Z" style="fill:#fff; stroke:#000; stroke-miterlimit:10; stroke-width:.25px;"/><path d="M163.56,47.6l4.21-23.9h10.55c4.1,0,6.44,2.81,6.44,6.48,0,4.93-3.82,8.75-9.14,8.75h-5.54l-1.51,8.67h-5Zm11.99-12.74c3.38,0,4.79-1.91,4.79-4.18,0-2.05-1.04-2.84-3.53-2.84h-4.75l-1.26,7.02h4.75Z" style="fill:#fff; stroke:#000; stroke-miterlimit:10; stroke-width:.25px;"/></g></g></svg>