<?xml version="1.0" encoding="UTF-8"?><svg id="Layer_1" xmlns="http://www.w3.org/2000/svg" xmlns:xlink="http://www.w3.org/1999/xlink" viewBox="0 0 230 72"><defs><filter id="drop-shadow-1" filterUnits="userSpaceOnUse"><feOffset dx="4" dy="4"/><feGaussianBlur result="blur" stdDeviation="0"/><feFlood flood-color="#000" flood-opacity="1"/><feComposite in2="blur" operator="in"/><feComposite in="SourceGraphic"/></filter></defs><rect x="78.91" y="-78.93" width="70.3" height="227.56" rx="35.15" ry="35.15" transform="translate(79.21 148.91) rotate(-90)" style="fill:#d40000; filter:url(#drop-shadow-1); stroke:#000; stroke-miterlimit:10; stroke-width:2px;"/><g><g><path d="M42.24,50.78l4.8-27.22h20.01l-.82,4.76h-14.47l-1.02,5.82h13.33l-.86,4.8h-13.33l-1.23,7.01h15.13l-.86,4.84h-20.66Z" style="stroke:#000; stroke-miterlimit:10; stroke-width:.25px;"/><path d="M74.92,50.78l-4.43-27.22h5.9l2.58,19.11,9.27-19.11h6.07l-14.02,27.22h-5.37Z" style="stroke:#000; stroke-miterlimit:10; stroke-width:.25px;"/><path d="M93.29,50.78l4.8-27.22h20.01l-.82,4.76h-14.47l-1.02,5.82h13.33l-.86,4.8h-13.33l-1.23,7.01h15.13l-.86,4.84h-20.66Z" style="stroke:#000; stroke-miterlimit:10; stroke-width:.25px;"/><path d="M134.66,50.78l-8.57-18.29-3.24,18.29h-5.29l4.8-27.22h5.86l7.91,17.51,3.08-17.51h5.33l-4.8,27.22h-5.08Z" style="stroke:#000; stroke-miterlimit:10; stroke-width:.25px;"/><path d="M151.67,50.78l3.98-22.47h-8.2l.82-4.76h22.14l-.82,4.76h-8.24l-3.98,22.47h-5.7Z" style="stroke:#000; stroke-miterlimit:10; stroke-width:.25px;"/><path d="M187.38,31.59c0-.21,.04-.45,.04-.66,0-2.75-1.56-3.49-4.8-3.49-3.57,0-5.45,1.35-5.45,3.69,0,1.35,1.15,2.42,3.69,3.03,3.32,.82,5.66,1.48,7.67,2.38,1.84,.86,3.2,2.3,3.2,5.37,0,6.44-5.74,9.8-11.93,9.8-7.09,0-10.62-2.54-10.62-7.42,0-.53,.04-1.07,.12-1.68h5.49c-.04,.33-.08,.62-.08,.9,0,2.58,2.17,3.61,5.17,3.61,3.94,0,6.19-1.68,6.19-4.3,0-1.39-.82-2.46-3.65-3.08-7.34-1.6-10.58-2.99-10.58-7.67,0-5.29,4.06-9.43,11.64-9.43,5.99,0,9.39,2.95,9.39,7.54,0,.45-.04,.94-.08,1.39h-5.41Z" style="stroke:#000; stroke-miterlimit:10; stroke-width:.25px;"/></g><g><path d="M40.24,48.78l4.8-27.22h20.01l-.82,4.76h-14.47l-1.02,5.82h13.33l-.86,4.8h-13.33l-1.23,7.01h15.13l-.86,4.84h-20.66Z" style="fill:#fff; stroke:#000; stroke-miterlimit:10; stroke-width:.25px;"/><path d="M72.92,48.78l-4.43-27.22h5.9l2.58,19.11,9.27-19.11h6.07l-14.02,27.22h-5.37Z" style="fill:#fff; stroke:#000; stroke-miterlimit:10; stroke-width:.25px;"/><path d="M91.29,48.78l4.8-27.22h20.01l-.82,4.76h-14.47l-1.02,5.82h13.33l-.86,4.8h-13.33l-1.23,7.01h15.13l-.86,4.84h-20.66Z" style="fill:#fff; stroke:#000; stroke-miterlimit:10; stroke-width:.25px;"/><path d="M132.66,48.78l-8.57-18.29-3.24,18.29h-5.29l4.8-27.22h5.86l7.91,17.51,3.08-17.51h5.33l-4.8,27.22h-5.08Z" style="fill:#fff; stroke:#000; stroke-miterlimit:10; stroke-width:.25px;"/><path d="M149.67,48.78l3.98-22.47h-8.2l.82-4.76h22.14l-.82,4.76h-8.24l-3.98,22.47h-5.7Z" style="fill:#fff; stroke:#000; stroke-miterlimit:10; stroke-width:.25px;"/><path d="M185.38,29.59c0-.21,.04-.45,.04-.66,0-2.75-1.56-3.49-4.8-3.49-3.57,0-5.45,1.35-5.45,3.69,0,1.35,1.15,2.42,3.69,3.03,3.32,.82,5.66,1.48,7.67,2.38,1.84,.86,3.2,2.3,3.2,5.37,0,6.44-5.74,9.8-11.93,9.8-7.09,0-10.62-2.54-10.62-7.42,0-.53,.04-1.07,.12-1.68h5.49c-.04,.33-.08,.62-.08,.9,0,2.58,2.17,3.61,5.17,3.61,3.94,0,6.19-1.68,6.19-4.3,0-1.39-.82-2.46-3.65-3.08-7.34-1.6-10.58-2.99-10.58-7.67,0-5.29,4.06-9.43,11.64-9.43,5.99,0,9.39,2.95,9.39,7.54,0,.45-.04,.94-.08,1.39h-5.41Z" style="fill:#fff; stroke:#000; stroke-miterlimit:10; stroke-width:.25px;"/></g></g></svg>