<?xml version="1.0" encoding="UTF-8"?><svg id="Layer_1" xmlns="http://www.w3.org/2000/svg" xmlns:xlink="http://www.w3.org/1999/xlink" viewBox="0 0 233 73"><defs><filter id="drop-shadow-2" filterUnits="userSpaceOnUse"><feOffset dx="4" dy="4"/><feGaussianBlur result="blur" stdDeviation="0"/><feFlood flood-color="#000" flood-opacity="1"/><feComposite in2="blur" operator="in"/><feComposite in="SourceGraphic"/></filter></defs><rect x="79.84" y="-79.63" width="71.19" height="230.44" rx="33.22" ry="33.22" transform="translate(79.84 151.02) rotate(-90)" style="fill:#d40000; filter:url(#drop-shadow-2); stroke:#000; stroke-miterlimit:10; stroke-width:2px;"/><g><g><path d="M48,49.6l-.65-4.93h-8.82l-2.56,4.93h-5.44l12.74-23.9h5.79l4.21,23.9h-5.29Zm-2.66-18.54h-.04l-4.75,9.5h6.08l-1.3-9.5Z" style="stroke:#000; stroke-miterlimit:10; stroke-width:.25px;"/><path d="M56.57,49.6l4.21-23.9h11.77c4.1,0,6.19,2.05,6.19,5.33,0,2.84-1.8,4.86-3.85,5.65,1.58,.65,2.77,1.98,2.77,4.54,0,4.97-3.46,8.39-10.33,8.39h-10.76Zm6.66-10.51l-1.12,6.44h6.34c2.59,0,4.32-1.8,4.32-4,0-1.94-1.15-2.45-3.13-2.45h-6.41Zm1.66-9.25l-.94,5.18h6.3c2.3,0,3.56-1.15,3.56-3.17,0-1.62-.9-2.02-2.92-2.02h-6.01Z" style="stroke:#000; stroke-miterlimit:10; stroke-width:.25px;"/><path d="M80.87,40.67c0-9.32,5.29-15.77,14.07-15.77,6.19,0,9.43,3.78,9.43,10.12,0,9.68-5.04,15.41-13.93,15.41-6.23,0-9.57-3.53-9.57-9.75Zm18.5-5c0-4.68-1.8-6.33-5.22-6.33-5.29,0-8.31,4.32-8.31,10.8,0,4.54,1.94,6.01,5.36,6.01,4.32,0,8.17-3.35,8.17-10.48Z" style="stroke:#000; stroke-miterlimit:10; stroke-width:.25px;"/><path d="M124.03,25.69h5.11l-2.81,15.95c-1.01,5.79-5.11,8.78-11.37,8.78-5.08,0-8.13-2.09-8.13-6.44,0-.61,.07-1.33,.22-2.05l2.84-16.23h5.08l-2.77,15.77c-.11,.54-.14,1.04-.14,1.51,0,2.34,1.3,3.31,3.56,3.31,3.2,0,5.08-1.51,5.62-4.64l2.81-15.95Z" style="stroke:#000; stroke-miterlimit:10; stroke-width:.25px;"/><path d="M135.45,49.6l3.49-19.73h-7.2l.72-4.18h19.44l-.72,4.18h-7.24l-3.49,19.73h-5Z" style="stroke:#000; stroke-miterlimit:10; stroke-width:.25px;"/><path d="M180.23,25.69h5.11l-2.81,15.95c-1.01,5.79-5.11,8.78-11.37,8.78-5.08,0-8.13-2.09-8.13-6.44,0-.61,.07-1.33,.22-2.05l2.84-16.23h5.08l-2.77,15.77c-.11,.54-.14,1.04-.14,1.51,0,2.34,1.3,3.31,3.56,3.31,3.2,0,5.08-1.51,5.62-4.64l2.81-15.95Z" style="stroke:#000; stroke-miterlimit:10; stroke-width:.25px;"/><path d="M201.65,32.75c0-.18,.04-.4,.04-.58,0-2.41-1.37-3.06-4.21-3.06-3.13,0-4.79,1.19-4.79,3.24,0,1.19,1.01,2.12,3.24,2.66,2.92,.72,4.97,1.3,6.73,2.09,1.62,.76,2.81,2.02,2.81,4.71,0,5.65-5.04,8.6-10.48,8.6-6.23,0-9.32-2.23-9.32-6.52,0-.47,.04-.94,.11-1.48h4.82c-.04,.29-.07,.54-.07,.79,0,2.27,1.91,3.17,4.54,3.17,3.46,0,5.44-1.48,5.44-3.78,0-1.22-.72-2.16-3.2-2.7-6.44-1.4-9.29-2.63-9.29-6.73,0-4.64,3.56-8.28,10.22-8.28,5.26,0,8.24,2.59,8.24,6.62,0,.4-.04,.83-.07,1.22h-4.75Z" style="stroke:#000; stroke-miterlimit:10; stroke-width:.25px;"/></g><g><path d="M46,47.6l-.65-4.93h-8.82l-2.56,4.93h-5.44l12.74-23.9h5.79l4.21,23.9h-5.29Zm-2.66-18.54h-.04l-4.75,9.5h6.08l-1.3-9.5Z" style="fill:#fff; stroke:#000; stroke-miterlimit:10; stroke-width:.25px;"/><path d="M54.57,47.6l4.21-23.9h11.77c4.1,0,6.19,2.05,6.19,5.33,0,2.84-1.8,4.86-3.85,5.65,1.58,.65,2.77,1.98,2.77,4.54,0,4.97-3.46,8.39-10.33,8.39h-10.76Zm6.66-10.51l-1.12,6.44h6.34c2.59,0,4.32-1.8,4.32-4,0-1.94-1.15-2.45-3.13-2.45h-6.41Zm1.66-9.25l-.94,5.18h6.3c2.3,0,3.56-1.15,3.56-3.17,0-1.62-.9-2.02-2.92-2.02h-6.01Z" style="fill:#fff; stroke:#000; stroke-miterlimit:10; stroke-width:.25px;"/><path d="M78.87,38.67c0-9.32,5.29-15.77,14.07-15.77,6.19,0,9.43,3.78,9.43,10.12,0,9.68-5.04,15.41-13.93,15.41-6.23,0-9.57-3.53-9.57-9.75Zm18.5-5c0-4.68-1.8-6.33-5.22-6.33-5.29,0-8.31,4.32-8.31,10.8,0,4.54,1.94,6.01,5.36,6.01,4.32,0,8.17-3.35,8.17-10.48Z" style="fill:#fff; stroke:#000; stroke-miterlimit:10; stroke-width:.25px;"/><path d="M122.03,23.69h5.11l-2.81,15.95c-1.01,5.79-5.11,8.78-11.37,8.78-5.08,0-8.13-2.09-8.13-6.44,0-.61,.07-1.33,.22-2.05l2.84-16.23h5.08l-2.77,15.77c-.11,.54-.14,1.04-.14,1.51,0,2.34,1.3,3.31,3.56,3.31,3.2,0,5.08-1.51,5.62-4.64l2.81-15.95Z" style="fill:#fff; stroke:#000; stroke-miterlimit:10; stroke-width:.25px;"/><path d="M133.45,47.6l3.49-19.73h-7.2l.72-4.18h19.44l-.72,4.18h-7.24l-3.49,19.73h-5Z" style="fill:#fff; stroke:#000; stroke-miterlimit:10; stroke-width:.25px;"/><path d="M178.23,23.69h5.11l-2.81,15.95c-1.01,5.79-5.11,8.78-11.37,8.78-5.08,0-8.13-2.09-8.13-6.44,0-.61,.07-1.33,.22-2.05l2.84-16.23h5.08l-2.77,15.77c-.11,.54-.14,1.04-.14,1.51,0,2.34,1.3,3.31,3.56,3.31,3.2,0,5.08-1.51,5.62-4.64l2.81-15.95Z" style="fill:#fff; stroke:#000; stroke-miterlimit:10; stroke-width:.25px;"/><path d="M199.65,30.75c0-.18,.04-.4,.04-.58,0-2.41-1.37-3.06-4.21-3.06-3.13,0-4.79,1.19-4.79,3.24,0,1.19,1.01,2.12,3.24,2.66,2.92,.72,4.97,1.3,6.73,2.09,1.62,.76,2.81,2.02,2.81,4.71,0,5.65-5.04,8.6-10.48,8.6-6.23,0-9.32-2.23-9.32-6.52,0-.47,.04-.94,.11-1.48h4.82c-.04,.29-.07,.54-.07,.79,0,2.27,1.91,3.17,4.54,3.17,3.46,0,5.44-1.48,5.44-3.78,0-1.22-.72-2.16-3.2-2.7-6.44-1.4-9.29-2.63-9.29-6.73,0-4.64,3.56-8.28,10.22-8.28,5.26,0,8.24,2.59,8.24,6.62,0,.4-.04,.83-.07,1.22h-4.75Z" style="fill:#fff; stroke:#000; stroke-miterlimit:10; stroke-width:.25px;"/></g></g></svg>