<?xml version="1.0" encoding="UTF-8"?><svg id="Layer_1" xmlns="http://www.w3.org/2000/svg" xmlns:xlink="http://www.w3.org/1999/xlink" viewBox="0 0 230.44 71.19"><defs><filter id="drop-shadow-3" filterUnits="userSpaceOnUse"><feOffset dx="4" dy="4"/><feGaussianBlur result="blur" stdDeviation="0"/><feFlood flood-color="#000" flood-opacity="1"/><feComposite in2="blur" operator="in"/><feComposite in="SourceGraphic"/></filter></defs><rect x="79.63" y="-79.63" width="71.19" height="230.44" rx="33.22" ry="33.22" transform="translate(79.63 150.81) rotate(-90)" style="fill:#d40000; filter:url(#drop-shadow-3); stroke:#000; stroke-miterlimit:10; stroke-width:2px;"/><g><g><path d="M49.66,31.41l3.16-17.92h13.17l-.54,3.13h-9.53l-.67,3.83h8.77l-.57,3.16h-8.77l-.81,4.62h9.96l-.57,3.19h-13.6Z" style="stroke:#000; stroke-miterlimit:10; stroke-width:.25px;"/><path d="M76.95,31.41l-5.64-12.04-2.13,12.04h-3.48l3.16-17.92h3.86l5.21,11.53,2.02-11.53h3.51l-3.16,17.92h-3.35Z" style="stroke:#000; stroke-miterlimit:10; stroke-width:.25px;"/><path d="M88.21,31.41l2.62-14.79h-5.4l.54-3.13h14.58l-.54,3.13h-5.42l-2.62,14.79h-3.75Z" style="stroke:#000; stroke-miterlimit:10; stroke-width:.25px;"/><path d="M99.96,31.41l3.16-17.92h13.17l-.54,3.13h-9.53l-.67,3.83h8.77l-.57,3.16h-8.77l-.81,4.62h9.96l-.57,3.19h-13.6Z" style="stroke:#000; stroke-miterlimit:10; stroke-width:.25px;"/><path d="M126.44,31.41l.81-4.62c.05-.32,.08-.62,.08-.86,0-1.21-.67-1.54-2.46-1.54h-4l-1.24,7.02h-3.64l3.16-17.92h9.1c2.94,0,4.7,1.83,4.7,4.37,0,2.24-1.32,4.24-3.51,4.97,1.16,.41,1.7,1.03,1.7,2.27,0,.35-.05,.78-.13,1.24l-.89,5.07h-3.67Zm-4.18-14.82l-.84,4.78h4.7c2.35,0,3.21-1.3,3.21-2.86s-.65-1.92-2.24-1.92h-4.83Z" style="stroke:#000; stroke-miterlimit:10; stroke-width:.25px;"/><path d="M143.31,31.41l2.62-14.79h-5.4l.54-3.13h14.58l-.54,3.13h-5.42l-2.62,14.79h-3.75Z" style="stroke:#000; stroke-miterlimit:10; stroke-width:.25px;"/><path d="M165.8,31.41l1.43-8.04h-6.99l-1.43,8.04h-3.75l3.16-17.92h3.75l-1.19,6.75h6.99l1.19-6.75h3.78l-3.16,17.92h-3.78Z" style="stroke:#000; stroke-miterlimit:10; stroke-width:.25px;"/><path d="M172.58,31.41l3.16-17.92h13.17l-.54,3.13h-9.53l-.67,3.83h8.77l-.57,3.16h-8.77l-.81,4.62h9.96l-.57,3.19h-13.6Z" style="stroke:#000; stroke-miterlimit:10; stroke-width:.25px;"/><path d="M73.17,61.41l.24-1.78c-1.13,1.51-3.35,2.4-5.8,2.4-4.29,0-6.61-3.73-6.61-7.94,0-5.86,3.94-11.2,10.69-11.2,4.02,0,6.78,2.27,6.78,5.53,0,.19,0,.4-.03,.59h-3.78v-.22c0-1.84-1.54-2.81-3.51-2.81-3.64,0-6.29,3.16-6.29,7.83,0,3.08,1.11,5.05,4,5.05,2.46,0,4.7-1.86,5.08-4.1h-3.97l.54-3h7.48l-1.7,9.64h-3.1Z" style="stroke:#000; stroke-miterlimit:10; stroke-width:.25px;"/><path d="M91.8,61.41l-.49-3.7h-6.61l-1.92,3.7h-4.08l9.55-17.92h4.35l3.16,17.92h-3.97Zm-2-13.9h-.03l-3.56,7.13h4.56l-.97-7.13Z" style="stroke:#000; stroke-miterlimit:10; stroke-width:.25px;"/><path d="M98.28,61.41l3.16-17.92h3.75l-2.59,14.66h8.88l-.57,3.27h-12.63Z" style="stroke:#000; stroke-miterlimit:10; stroke-width:.25px;"/><path d="M113.48,61.41l3.16-17.92h3.75l-2.59,14.66h8.88l-.57,3.27h-12.63Z" style="stroke:#000; stroke-miterlimit:10; stroke-width:.25px;"/><path d="M128.68,61.41l3.16-17.92h13.17l-.54,3.13h-9.53l-.67,3.83h8.77l-.57,3.16h-8.77l-.81,4.62h9.96l-.57,3.19h-13.6Z" style="stroke:#000; stroke-miterlimit:10; stroke-width:.25px;"/><path d="M155.17,61.41l.81-4.62c.05-.32,.08-.62,.08-.86,0-1.21-.67-1.54-2.46-1.54h-4l-1.24,7.02h-3.64l3.16-17.92h9.1c2.94,0,4.7,1.83,4.7,4.37,0,2.24-1.32,4.24-3.51,4.97,1.16,.41,1.7,1.03,1.7,2.27,0,.35-.05,.78-.13,1.24l-.89,5.07h-3.67Zm-4.18-14.82l-.84,4.78h4.7c2.35,0,3.21-1.3,3.21-2.86s-.65-1.92-2.24-1.92h-4.83Z" style="stroke:#000; stroke-miterlimit:10; stroke-width:.25px;"/><path d="M166.21,61.41l1.19-6.78-4.24-11.15h4.29l2.48,7.29,4.78-7.29h4.4l-7.96,11.2-1.19,6.72h-3.75Z" style="stroke:#000; stroke-miterlimit:10; stroke-width:.25px;"/></g><g><path d="M48.66,29.41l3.16-17.92h13.17l-.54,3.13h-9.53l-.67,3.83h8.77l-.57,3.16h-8.77l-.81,4.62h9.96l-.57,3.19h-13.6Z" style="fill:#fff; stroke:#000; stroke-miterlimit:10; stroke-width:.25px;"/><path d="M75.95,29.41l-5.64-12.04-2.13,12.04h-3.48l3.16-17.92h3.86l5.21,11.53,2.02-11.53h3.51l-3.16,17.92h-3.35Z" style="fill:#fff; stroke:#000; stroke-miterlimit:10; stroke-width:.25px;"/><path d="M87.21,29.41l2.62-14.79h-5.4l.54-3.13h14.58l-.54,3.13h-5.42l-2.62,14.79h-3.75Z" style="fill:#fff; stroke:#000; stroke-miterlimit:10; stroke-width:.25px;"/><path d="M98.96,29.41l3.16-17.92h13.17l-.54,3.13h-9.53l-.67,3.83h8.77l-.57,3.16h-8.77l-.81,4.62h9.96l-.57,3.19h-13.6Z" style="fill:#fff; stroke:#000; stroke-miterlimit:10; stroke-width:.25px;"/><path d="M125.44,29.41l.81-4.62c.05-.32,.08-.62,.08-.86,0-1.21-.67-1.54-2.46-1.54h-4l-1.24,7.02h-3.64l3.16-17.92h9.1c2.94,0,4.7,1.83,4.7,4.37,0,2.24-1.32,4.24-3.51,4.97,1.16,.41,1.7,1.03,1.7,2.27,0,.35-.05,.78-.13,1.24l-.89,5.07h-3.67Zm-4.18-14.82l-.84,4.78h4.7c2.35,0,3.21-1.3,3.21-2.86s-.65-1.92-2.24-1.92h-4.83Z" style="fill:#fff; stroke:#000; stroke-miterlimit:10; stroke-width:.25px;"/><path d="M142.31,29.41l2.62-14.79h-5.4l.54-3.13h14.58l-.54,3.13h-5.42l-2.62,14.79h-3.75Z" style="fill:#fff; stroke:#000; stroke-miterlimit:10; stroke-width:.25px;"/><path d="M164.8,29.41l1.43-8.04h-6.99l-1.43,8.04h-3.75l3.16-17.92h3.75l-1.19,6.75h6.99l1.19-6.75h3.78l-3.16,17.92h-3.78Z" style="fill:#fff; stroke:#000; stroke-miterlimit:10; stroke-width:.25px;"/><path d="M171.58,29.41l3.16-17.92h13.17l-.54,3.13h-9.53l-.67,3.83h8.77l-.57,3.16h-8.77l-.81,4.62h9.96l-.57,3.19h-13.6Z" style="fill:#fff; stroke:#000; stroke-miterlimit:10; stroke-width:.25px;"/><path d="M72.17,59.41l.24-1.78c-1.13,1.51-3.35,2.4-5.8,2.4-4.29,0-6.61-3.73-6.61-7.94,0-5.86,3.94-11.2,10.69-11.2,4.02,0,6.78,2.27,6.78,5.53,0,.19,0,.4-.03,.59h-3.78v-.22c0-1.84-1.54-2.81-3.51-2.81-3.64,0-6.29,3.16-6.29,7.83,0,3.08,1.11,5.05,4,5.05,2.46,0,4.7-1.86,5.08-4.1h-3.97l.54-3h7.48l-1.7,9.64h-3.1Z" style="fill:#fff; stroke:#000; stroke-miterlimit:10; stroke-width:.25px;"/><path d="M90.8,59.41l-.49-3.7h-6.61l-1.92,3.7h-4.08l9.55-17.92h4.35l3.16,17.92h-3.97Zm-2-13.9h-.03l-3.56,7.13h4.56l-.97-7.13Z" style="fill:#fff; stroke:#000; stroke-miterlimit:10; stroke-width:.25px;"/><path d="M97.28,59.41l3.16-17.92h3.75l-2.59,14.66h8.88l-.57,3.27h-12.63Z" style="fill:#fff; stroke:#000; stroke-miterlimit:10; stroke-width:.25px;"/><path d="M112.48,59.41l3.16-17.92h3.75l-2.59,14.66h8.88l-.57,3.27h-12.63Z" style="fill:#fff; stroke:#000; stroke-miterlimit:10; stroke-width:.25px;"/><path d="M127.68,59.41l3.16-17.92h13.17l-.54,3.13h-9.53l-.67,3.83h8.77l-.57,3.16h-8.77l-.81,4.62h9.96l-.57,3.19h-13.6Z" style="fill:#fff; stroke:#000; stroke-miterlimit:10; stroke-width:.25px;"/><path d="M154.17,59.41l.81-4.62c.05-.32,.08-.62,.08-.86,0-1.21-.67-1.54-2.46-1.54h-4l-1.24,7.02h-3.64l3.16-17.92h9.1c2.94,0,4.7,1.83,4.7,4.37,0,2.24-1.32,4.24-3.51,4.97,1.16,.41,1.7,1.03,1.7,2.27,0,.35-.05,.78-.13,1.24l-.89,5.07h-3.67Zm-4.18-14.82l-.84,4.78h4.7c2.35,0,3.21-1.3,3.21-2.86s-.65-1.92-2.24-1.92h-4.83Z" style="fill:#fff; stroke:#000; stroke-miterlimit:10; stroke-width:.25px;"/><path d="M165.21,59.41l1.19-6.78-4.24-11.15h4.29l2.48,7.29,4.78-7.29h4.4l-7.96,11.2-1.19,6.72h-3.75Z" style="fill:#fff; stroke:#000; stroke-miterlimit:10; stroke-width:.25px;"/></g></g></svg>