<?xml version="1.0" encoding="UTF-8"?><svg id="a" xmlns="http://www.w3.org/2000/svg" width="166.5" height="47" viewBox="0 0 166.5 47"><rect x="1" y="1" width="164.5" height="45" style="fill:#d40000; stroke:#000; stroke-miterlimit:10; stroke-width:2px;"/><g><g><path d="M46.7,20.7c0-.1,0-.3,0-.4,0-1.7-1-2.2-3-2.2s-3.4,.8-3.4,2.3,.7,1.5,2.3,1.9c2.1,.5,3.5,.9,4.8,1.5,1.2,.5,2,1.4,2,3.4,0,4-3.6,6.1-7.5,6.1s-6.7-1.6-6.7-4.7,0-.7,0-1.1h3.4c0,.2,0,.4,0,.6,0,1.6,1.4,2.3,3.2,2.3s3.9-1.1,3.9-2.7-.5-1.5-2.3-1.9c-4.6-1-6.6-1.9-6.6-4.8s2.5-5.9,7.3-5.9,5.9,1.8,5.9,4.7,0,.6,0,.9h-3.4Z" style="stroke:#000; stroke-miterlimit:10; stroke-width:.2px;"/><path d="M50.9,32.7l3-17.1h3.6l-3,17.1h-3.6Z" style="stroke:#000; stroke-miterlimit:10; stroke-width:.2px;"/><path d="M70,32.7l.2-1.7c-1.1,1.4-3.2,2.3-5.5,2.3-4.1,0-6.3-3.5-6.3-7.6s3.8-10.7,10.2-10.7,6.4,2.2,6.4,5.3,0,.4,0,.6h-3.6v-.2c0-1.7-1.5-2.7-3.3-2.7-3.5,0-6,3-6,7.5s1.1,4.8,3.8,4.8,4.5-1.8,4.8-3.9h-3.8l.5-2.9h7.1l-1.6,9.2h-2.9Z" style="stroke:#000; stroke-miterlimit:10; stroke-width:.2px;"/><path d="M86.4,32.7l-5.4-11.5-2,11.5h-3.3l3-17.1h3.7l5,11,1.9-11h3.3l-3,17.1h-3.2Z" style="stroke:#000; stroke-miterlimit:10; stroke-width:.2px;"/><path d="M113.3,15.7h3.6l-2,11.4c-.7,4.1-3.6,6.3-8.1,6.3s-5.8-1.5-5.8-4.6,0-.9,.2-1.5l2-11.6h3.6l-2,11.3c0,.4,0,.7,0,1.1,0,1.7,.9,2.4,2.5,2.4,2.3,0,3.6-1.1,4-3.3l2-11.4h0Z" style="stroke:#000; stroke-miterlimit:10; stroke-width:.2px;"/><path d="M116.7,32.7l3-17.1h7.5c2.9,0,4.6,2,4.6,4.6s-2.7,6.2-6.5,6.2h-4l-1.1,6.2h-3.6Zm8.6-9.1c2.4,0,3.4-1.4,3.4-3s-.7-2-2.5-2h-3.4l-.9,5h3.4Z" style="stroke:#000; stroke-miterlimit:10; stroke-width:.2px;"/></g><g><path d="M46,19.3c0-.1,0-.3,0-.4,0-1.7-1-2.2-3-2.2s-3.4,.8-3.4,2.3,.7,1.5,2.3,1.9c2.1,.5,3.5,.9,4.8,1.5,1.2,.5,2,1.4,2,3.4,0,4-3.6,6.1-7.5,6.1s-6.7-1.6-6.7-4.7,0-.7,0-1.1h3.4c0,.2,0,.4,0,.6,0,1.6,1.4,2.3,3.2,2.3s3.9-1.1,3.9-2.7-.5-1.5-2.3-1.9c-4.6-1-6.6-1.9-6.6-4.8s2.5-5.9,7.3-5.9,5.9,1.8,5.9,4.7,0,.6,0,.9h-3.4Z" style="fill:#fff; stroke:#000; stroke-miterlimit:10; stroke-width:.2px;"/><path d="M50.2,31.3l3-17.1h3.6l-3,17.1h-3.6Z" style="fill:#fff; stroke:#000; stroke-miterlimit:10; stroke-width:.2px;"/><path d="M69.3,31.3l.2-1.7c-1.1,1.4-3.2,2.3-5.5,2.3-4.1,0-6.3-3.5-6.3-7.6s3.8-10.7,10.2-10.7,6.4,2.2,6.4,5.3,0,.4,0,.6h-3.6v-.2c0-1.7-1.5-2.7-3.3-2.7-3.5,0-6,3-6,7.5s1.1,4.8,3.8,4.8,4.5-1.8,4.8-3.9h-3.8l.5-2.9h7.1l-1.6,9.2h-2.9Z" style="fill:#fff; stroke:#000; stroke-miterlimit:10; stroke-width:.2px;"/><path d="M85.7,31.3l-5.4-11.5-2,11.5h-3.3l3-17.1h3.7l5,11,1.9-11h3.3l-3,17.1h-3.2Z" style="fill:#fff; stroke:#000; stroke-miterlimit:10; stroke-width:.2px;"/><path d="M112.5,14.2h3.6l-2,11.4c-.7,4.1-3.6,6.3-8.1,6.3s-5.8-1.5-5.8-4.6,0-.9,.2-1.5l2-11.6h3.6l-2,11.3c0,.4,0,.7,0,1.1,0,1.7,.9,2.4,2.5,2.4,2.3,0,3.6-1.1,4-3.3l2-11.4h0Z" style="fill:#fff; stroke:#000; stroke-miterlimit:10; stroke-width:.2px;"/><path d="M116,31.3l3-17.1h7.5c2.9,0,4.6,2,4.6,4.6s-2.7,6.2-6.5,6.2h-4l-1.1,6.2h-3.6Zm8.6-9.1c2.4,0,3.4-1.4,3.4-3s-.7-2-2.5-2h-3.4l-.9,5h3.4Z" style="fill:#fff; stroke:#000; stroke-miterlimit:10; stroke-width:.2px;"/></g></g></svg>