<?xml version="1.0" encoding="UTF-8"?><svg id="Layer_1" xmlns="http://www.w3.org/2000/svg" xmlns:xlink="http://www.w3.org/1999/xlink" viewBox="0 0 231 73"><defs><filter id="drop-shadow-7" filterUnits="userSpaceOnUse"><feOffset dx="4" dy="4"/><feGaussianBlur result="blur" stdDeviation="0"/><feFlood flood-color="#000" flood-opacity="1"/><feComposite in2="blur" operator="in"/><feComposite in="SourceGraphic"/></filter></defs><rect x="79.45" y="-79.46" width="71.19" height="230.44" rx="33.22" ry="33.22" transform="translate(79.28 150.8) rotate(-90)" style="fill:#d40000; filter:url(#drop-shadow-7); stroke:#000; stroke-miterlimit:10; stroke-width:2px;"/><g><g><path d="M53.83,40.42c-1.46,4.08-4.75,6.78-8.91,6.78s-6.86-2.59-6.86-7.42c0-6.91,4.21-11.71,10.28-11.71,4.24,0,6.56,2.56,6.56,5.91,0,.19-.03,.38-.03,.57h-3.75c-.13-2.43-1.54-3.24-3.32-3.24-4.02,0-5.88,3.62-5.88,8.1,0,3.35,1.13,4.53,3.46,4.53s3.81-1.27,4.7-3.51h3.75Z" style="stroke:#000; stroke-miterlimit:10; stroke-width:.25px;"/><path d="M56.24,39.88c0-6.99,3.97-11.82,10.55-11.82,4.64,0,7.07,2.83,7.07,7.58,0,7.26-3.78,11.55-10.45,11.55-4.67,0-7.18-2.65-7.18-7.32Zm13.87-3.75c0-3.51-1.35-4.75-3.91-4.75-3.97,0-6.24,3.24-6.24,8.1,0,3.4,1.46,4.51,4.02,4.51,3.24,0,6.13-2.51,6.13-7.86Z" style="stroke:#000; stroke-miterlimit:10; stroke-width:.25px;"/><path d="M86.1,46.57l-5.64-12.04-2.13,12.04h-3.48l3.16-17.92h3.86l5.21,11.53,2.02-11.53h3.51l-3.16,17.92h-3.35Z" style="stroke:#000; stroke-miterlimit:10; stroke-width:.25px;"/><path d="M97.3,46.57l2.62-14.79h-5.4l.54-3.13h14.58l-.54,3.13h-5.42l-2.62,14.79h-3.75Z" style="stroke:#000; stroke-miterlimit:10; stroke-width:.25px;"/><path d="M116.87,46.57l-.49-3.7h-6.61l-1.92,3.7h-4.08l9.56-17.92h4.35l3.16,17.92h-3.97Zm-2-13.9h-.03l-3.56,7.13h4.56l-.97-7.13Z" style="stroke:#000; stroke-miterlimit:10; stroke-width:.25px;"/><path d="M138.28,40.42c-1.46,4.08-4.75,6.78-8.91,6.78s-6.86-2.59-6.86-7.42c0-6.91,4.21-11.71,10.28-11.71,4.24,0,6.56,2.56,6.56,5.91,0,.19-.03,.38-.03,.57h-3.75c-.13-2.43-1.54-3.24-3.32-3.24-4.02,0-5.88,3.62-5.88,8.1,0,3.35,1.13,4.53,3.46,4.53s3.81-1.27,4.7-3.51h3.75Z" style="stroke:#000; stroke-miterlimit:10; stroke-width:.25px;"/><path d="M143.82,46.57l2.62-14.79h-5.4l.54-3.13h14.58l-.54,3.13h-5.42l-2.62,14.79h-3.75Z" style="stroke:#000; stroke-miterlimit:10; stroke-width:.25px;"/><path d="M177.41,28.65h3.83l-2.11,11.96c-.76,4.35-3.83,6.59-8.53,6.59-3.81,0-6.1-1.57-6.1-4.83,0-.46,.05-1,.16-1.54l2.13-12.17h3.81l-2.08,11.82c-.08,.41-.11,.78-.11,1.13,0,1.75,.97,2.48,2.67,2.48,2.4,0,3.81-1.13,4.21-3.48l2.11-11.96Z" style="stroke:#000; stroke-miterlimit:10; stroke-width:.25px;"/><path d="M193.47,33.94c0-.13,.03-.3,.03-.43,0-1.81-1.03-2.29-3.16-2.29-2.35,0-3.59,.89-3.59,2.43,0,.89,.75,1.59,2.43,2,2.19,.54,3.73,.97,5.05,1.57,1.21,.57,2.11,1.51,2.11,3.54,0,4.24-3.78,6.45-7.85,6.45-4.67,0-6.99-1.67-6.99-4.89,0-.35,.03-.7,.08-1.11h3.62c-.03,.22-.05,.4-.05,.59,0,1.7,1.43,2.38,3.4,2.38,2.59,0,4.08-1.11,4.08-2.83,0-.92-.54-1.62-2.4-2.02-4.83-1.05-6.96-1.97-6.96-5.05,0-3.48,2.67-6.21,7.67-6.21,3.94,0,6.18,1.94,6.18,4.97,0,.3-.03,.62-.05,.92h-3.56Z" style="stroke:#000; stroke-miterlimit:10; stroke-width:.25px;"/></g><g><path d="M52.83,38.42c-1.46,4.08-4.75,6.78-8.91,6.78s-6.86-2.59-6.86-7.42c0-6.91,4.21-11.71,10.28-11.71,4.24,0,6.56,2.56,6.56,5.91,0,.19-.03,.38-.03,.57h-3.75c-.13-2.43-1.54-3.24-3.32-3.24-4.02,0-5.88,3.62-5.88,8.1,0,3.35,1.13,4.53,3.46,4.53s3.81-1.27,4.7-3.51h3.75Z" style="fill:#fff; stroke:#000; stroke-miterlimit:10; stroke-width:.25px;"/><path d="M55.24,37.88c0-6.99,3.97-11.82,10.55-11.82,4.64,0,7.07,2.83,7.07,7.58,0,7.26-3.78,11.55-10.45,11.55-4.67,0-7.18-2.65-7.18-7.32Zm13.87-3.75c0-3.51-1.35-4.75-3.91-4.75-3.97,0-6.24,3.24-6.24,8.1,0,3.4,1.46,4.51,4.02,4.51,3.24,0,6.13-2.51,6.13-7.86Z" style="fill:#fff; stroke:#000; stroke-miterlimit:10; stroke-width:.25px;"/><path d="M85.1,44.57l-5.64-12.04-2.13,12.04h-3.48l3.16-17.92h3.86l5.21,11.53,2.02-11.53h3.51l-3.16,17.92h-3.35Z" style="fill:#fff; stroke:#000; stroke-miterlimit:10; stroke-width:.25px;"/><path d="M96.3,44.57l2.62-14.79h-5.4l.54-3.13h14.58l-.54,3.13h-5.42l-2.62,14.79h-3.75Z" style="fill:#fff; stroke:#000; stroke-miterlimit:10; stroke-width:.25px;"/><path d="M115.87,44.57l-.49-3.7h-6.61l-1.92,3.7h-4.08l9.56-17.92h4.35l3.16,17.92h-3.97Zm-2-13.9h-.03l-3.56,7.13h4.56l-.97-7.13Z" style="fill:#fff; stroke:#000; stroke-miterlimit:10; stroke-width:.25px;"/><path d="M137.28,38.42c-1.46,4.08-4.75,6.78-8.91,6.78s-6.86-2.59-6.86-7.42c0-6.91,4.21-11.71,10.28-11.71,4.24,0,6.56,2.56,6.56,5.91,0,.19-.03,.38-.03,.57h-3.75c-.13-2.43-1.54-3.24-3.32-3.24-4.02,0-5.88,3.62-5.88,8.1,0,3.35,1.13,4.53,3.46,4.53s3.81-1.27,4.7-3.51h3.75Z" style="fill:#fff; stroke:#000; stroke-miterlimit:10; stroke-width:.25px;"/><path d="M142.82,44.57l2.62-14.79h-5.4l.54-3.13h14.58l-.54,3.13h-5.42l-2.62,14.79h-3.75Z" style="fill:#fff; stroke:#000; stroke-miterlimit:10; stroke-width:.25px;"/><path d="M176.41,26.65h3.83l-2.11,11.96c-.76,4.35-3.83,6.59-8.53,6.59-3.81,0-6.1-1.57-6.1-4.83,0-.46,.05-1,.16-1.54l2.13-12.17h3.81l-2.08,11.82c-.08,.41-.11,.78-.11,1.13,0,1.75,.97,2.48,2.67,2.48,2.4,0,3.81-1.13,4.21-3.48l2.11-11.96Z" style="fill:#fff; stroke:#000; stroke-miterlimit:10; stroke-width:.25px;"/><path d="M192.47,31.94c0-.13,.03-.3,.03-.43,0-1.81-1.03-2.29-3.16-2.29-2.35,0-3.59,.89-3.59,2.43,0,.89,.75,1.59,2.43,2,2.19,.54,3.73,.97,5.05,1.57,1.21,.57,2.11,1.51,2.11,3.54,0,4.24-3.78,6.45-7.85,6.45-4.67,0-6.99-1.67-6.99-4.89,0-.35,.03-.7,.08-1.11h3.62c-.03,.22-.05,.4-.05,.59,0,1.7,1.43,2.38,3.4,2.38,2.59,0,4.08-1.11,4.08-2.83,0-.92-.54-1.62-2.4-2.02-4.83-1.05-6.96-1.97-6.96-5.05,0-3.48,2.67-6.21,7.67-6.21,3.94,0,6.18,1.94,6.18,4.97,0,.3-.03,.62-.05,.92h-3.56Z" style="fill:#fff; stroke:#000; stroke-miterlimit:10; stroke-width:.25px;"/></g></g></svg>