<?xml version="1.0" encoding="UTF-8"?><svg id="Layer_1" xmlns="http://www.w3.org/2000/svg" xmlns:xlink="http://www.w3.org/1999/xlink" viewBox="0 0 231 73"><defs><filter id="drop-shadow-9" filterUnits="userSpaceOnUse"><feOffset dx="4" dy="4"/><feGaussianBlur result="blur" stdDeviation="0"/><feFlood flood-color="#000" flood-opacity="1"/><feComposite in2="blur" operator="in"/><feComposite in="SourceGraphic"/></filter></defs><rect x="79.45" y="-79.46" width="71.19" height="230.44" rx="33.22" ry="33.22" transform="translate(79.28 150.8) rotate(-90)" style="fill:#d40000; filter:url(#drop-shadow-9); stroke:#000; stroke-miterlimit:10; stroke-width:2px;"/><g><g><path d="M50.59,21.97c0-.12,.02-.25,.02-.37,0-1.54-.87-1.95-2.69-1.95-2,0-3.06,.76-3.06,2.07,0,.76,.64,1.36,2.07,1.7,1.86,.46,3.17,.83,4.3,1.33,1.03,.48,1.79,1.29,1.79,3.01,0,3.61-3.22,5.5-6.69,5.5-3.98,0-5.96-1.43-5.96-4.16,0-.3,.02-.6,.07-.94h3.08c-.02,.18-.05,.34-.05,.51,0,1.45,1.22,2.02,2.9,2.02,2.21,0,3.47-.94,3.47-2.41,0-.78-.46-1.38-2.05-1.72-4.12-.9-5.93-1.68-5.93-4.3,0-2.97,2.28-5.29,6.53-5.29,3.36,0,5.27,1.66,5.27,4.23,0,.25-.02,.53-.05,.78h-3.04Z" style="stroke:#000; stroke-miterlimit:10; stroke-width:.25px;"/><path d="M54.36,32.73l2.69-15.27h3.2l-2.69,15.27h-3.2Z" style="stroke:#000; stroke-miterlimit:10; stroke-width:.25px;"/><path d="M71.42,32.73l.21-1.52c-.97,1.29-2.85,2.05-4.94,2.05-3.66,0-5.63-3.17-5.63-6.76,0-4.99,3.36-9.54,9.11-9.54,3.43,0,5.77,1.93,5.77,4.71,0,.16,0,.34-.02,.51h-3.22v-.18c0-1.56-1.31-2.39-2.99-2.39-3.1,0-5.36,2.69-5.36,6.67,0,2.62,.94,4.3,3.4,4.3,2.09,0,4-1.59,4.32-3.5h-3.38l.46-2.55h6.37l-1.45,8.21h-2.64Z" style="stroke:#000; stroke-miterlimit:10; stroke-width:.25px;"/><path d="M86.72,32.73l-4.81-10.26-1.82,10.26h-2.97l2.69-15.27h3.29l4.44,9.82,1.72-9.82h2.99l-2.69,15.27h-2.85Z" style="stroke:#000; stroke-miterlimit:10; stroke-width:.25px;"/><path d="M108.45,17.46h3.27l-1.79,10.19c-.64,3.7-3.27,5.61-7.27,5.61-3.24,0-5.2-1.33-5.2-4.12,0-.39,.05-.85,.14-1.31l1.82-10.37h3.24l-1.77,10.07c-.07,.35-.09,.67-.09,.97,0,1.5,.83,2.12,2.28,2.12,2.05,0,3.24-.97,3.59-2.97l1.79-10.19Z" style="stroke:#000; stroke-miterlimit:10; stroke-width:.25px;"/><path d="M111.58,32.73l2.69-15.27h6.74c2.62,0,4.12,1.79,4.12,4.14,0,3.15-2.44,5.59-5.84,5.59h-3.54l-.97,5.54h-3.2Zm7.66-8.14c2.16,0,3.06-1.22,3.06-2.67,0-1.31-.67-1.82-2.25-1.82h-3.04l-.8,4.48h3.04Z" style="stroke:#000; stroke-miterlimit:10; stroke-width:.25px;"/><path d="M134.19,26.29l-1.13,6.44h-3.2l2.69-15.27h10.88l-.46,2.67h-7.68l-.62,3.47h6.71l-.48,2.69h-6.71Z" style="stroke:#000; stroke-miterlimit:10; stroke-width:.25px;"/><path d="M143.09,27.02c0-5.96,3.38-10.07,8.99-10.07,3.96,0,6.02,2.41,6.02,6.46,0,6.19-3.22,9.84-8.9,9.84-3.98,0-6.12-2.25-6.12-6.23Zm11.82-3.2c0-2.99-1.15-4.05-3.33-4.05-3.38,0-5.31,2.76-5.31,6.9,0,2.9,1.24,3.84,3.43,3.84,2.76,0,5.22-2.14,5.22-6.69Z" style="stroke:#000; stroke-miterlimit:10; stroke-width:.25px;"/><path d="M167.84,32.73l.69-3.93c.05-.28,.07-.53,.07-.74,0-1.04-.58-1.31-2.09-1.31h-3.4l-1.06,5.98h-3.1l2.69-15.27h7.75c2.51,0,4,1.56,4,3.72,0,1.91-1.13,3.61-2.99,4.23,.99,.34,1.45,.87,1.45,1.93,0,.3-.05,.67-.12,1.06l-.76,4.32h-3.13Zm-3.56-12.62l-.71,4.07h4c2,0,2.74-1.1,2.74-2.44s-.55-1.63-1.91-1.63h-4.12Z" style="stroke:#000; stroke-miterlimit:10; stroke-width:.25px;"/><path d="M188.93,32.73l-.41-3.15h-5.63l-1.63,3.15h-3.47l8.14-15.27h3.7l2.69,15.27h-3.38Zm-1.7-11.84h-.02l-3.04,6.07h3.89l-.83-6.07Z" style="stroke:#000; stroke-miterlimit:10; stroke-width:.25px;"/><path d="M53.62,57.73l-4.81-10.26-1.82,10.26h-2.97l2.69-15.27h3.29l4.44,9.82,1.72-9.82h2.99l-2.69,15.27h-2.85Z" style="stroke:#000; stroke-miterlimit:10; stroke-width:.25px;"/><path d="M59.01,57.73l2.69-15.27h11.22l-.46,2.67h-8.12l-.57,3.27h7.47l-.48,2.69h-7.47l-.69,3.93h8.48l-.48,2.71h-11.59Z" style="stroke:#000; stroke-miterlimit:10; stroke-width:.25px;"/><path d="M84.26,57.73l-.62-9.93-4.16,9.93h-2.99l-1.63-15.27h3.31l.76,9.89,3.86-9.89h3.36l.58,9.89,4.23-9.89h3.36l-6.97,15.27h-3.08Z" style="stroke:#000; stroke-miterlimit:10; stroke-width:.25px;"/><path d="M103.46,46.97c0-.12,.02-.25,.02-.37,0-1.54-.87-1.95-2.69-1.95-2,0-3.06,.76-3.06,2.07,0,.76,.64,1.36,2.07,1.7,1.86,.46,3.17,.83,4.3,1.33,1.03,.48,1.79,1.29,1.79,3.01,0,3.61-3.22,5.5-6.69,5.5-3.98,0-5.96-1.43-5.96-4.16,0-.3,.02-.6,.07-.94h3.08c-.02,.18-.05,.34-.05,.51,0,1.45,1.22,2.02,2.9,2.02,2.21,0,3.47-.94,3.47-2.41,0-.78-.46-1.38-2.05-1.72-4.12-.9-5.93-1.68-5.93-4.3,0-2.97,2.28-5.29,6.53-5.29,3.36,0,5.27,1.66,5.27,4.23,0,.25-.02,.53-.05,.78h-3.04Z" style="stroke:#000; stroke-miterlimit:10; stroke-width:.25px;"/><path d="M107.24,57.73l2.69-15.27h3.2l-2.21,12.49h7.57l-.48,2.78h-10.76Z" style="stroke:#000; stroke-miterlimit:10; stroke-width:.25px;"/><path d="M120.14,57.73l2.69-15.27h11.22l-.46,2.67h-8.12l-.57,3.27h7.47l-.48,2.69h-7.47l-.69,3.93h8.48l-.48,2.71h-11.59Z" style="stroke:#000; stroke-miterlimit:10; stroke-width:.25px;"/><path d="M137.92,57.73l2.23-12.6h-4.6l.46-2.67h12.42l-.46,2.67h-4.62l-2.23,12.6h-3.2Z" style="stroke:#000; stroke-miterlimit:10; stroke-width:.25px;"/><path d="M152.15,57.73l2.23-12.6h-4.6l.46-2.67h12.42l-.46,2.67h-4.62l-2.23,12.6h-3.2Z" style="stroke:#000; stroke-miterlimit:10; stroke-width:.25px;"/><path d="M162.11,57.73l2.69-15.27h11.22l-.46,2.67h-8.12l-.57,3.27h7.47l-.48,2.69h-7.47l-.69,3.93h8.48l-.48,2.71h-11.59Z" style="stroke:#000; stroke-miterlimit:10; stroke-width:.25px;"/><path d="M184.63,57.73l.69-3.93c.05-.28,.07-.53,.07-.74,0-1.04-.58-1.31-2.09-1.31h-3.4l-1.06,5.98h-3.1l2.69-15.27h7.75c2.51,0,4,1.56,4,3.72,0,1.91-1.13,3.61-2.99,4.23,.99,.34,1.45,.87,1.45,1.93,0,.3-.05,.67-.12,1.06l-.76,4.32h-3.13Zm-3.56-12.62l-.71,4.07h4c2,0,2.74-1.1,2.74-2.44s-.55-1.63-1.91-1.63h-4.12Z" style="stroke:#000; stroke-miterlimit:10; stroke-width:.25px;"/></g><g><path d="M49.59,19.97c0-.12,.02-.25,.02-.37,0-1.54-.87-1.95-2.69-1.95-2,0-3.06,.76-3.06,2.07,0,.76,.64,1.36,2.07,1.7,1.86,.46,3.17,.83,4.3,1.33,1.03,.48,1.79,1.29,1.79,3.01,0,3.61-3.22,5.5-6.69,5.5-3.98,0-5.96-1.43-5.96-4.16,0-.3,.02-.6,.07-.94h3.08c-.02,.18-.05,.34-.05,.51,0,1.45,1.22,2.02,2.9,2.02,2.21,0,3.47-.94,3.47-2.41,0-.78-.46-1.38-2.05-1.72-4.12-.9-5.93-1.68-5.93-4.3,0-2.97,2.28-5.29,6.53-5.29,3.36,0,5.27,1.66,5.27,4.23,0,.25-.02,.53-.05,.78h-3.04Z" style="fill:#fff; stroke:#000; stroke-miterlimit:10; stroke-width:.25px;"/><path d="M53.36,30.73l2.69-15.27h3.2l-2.69,15.27h-3.2Z" style="fill:#fff; stroke:#000; stroke-miterlimit:10; stroke-width:.25px;"/><path d="M70.42,30.73l.21-1.52c-.97,1.29-2.85,2.05-4.94,2.05-3.66,0-5.63-3.17-5.63-6.76,0-4.99,3.36-9.54,9.11-9.54,3.43,0,5.77,1.93,5.77,4.71,0,.16,0,.34-.02,.51h-3.22v-.18c0-1.56-1.31-2.39-2.99-2.39-3.1,0-5.36,2.69-5.36,6.67,0,2.62,.94,4.3,3.4,4.3,2.09,0,4-1.59,4.32-3.5h-3.38l.46-2.55h6.37l-1.45,8.21h-2.64Z" style="fill:#fff; stroke:#000; stroke-miterlimit:10; stroke-width:.25px;"/><path d="M85.72,30.73l-4.81-10.26-1.82,10.26h-2.97l2.69-15.27h3.29l4.44,9.82,1.72-9.82h2.99l-2.69,15.27h-2.85Z" style="fill:#fff; stroke:#000; stroke-miterlimit:10; stroke-width:.25px;"/><path d="M107.45,15.46h3.27l-1.79,10.19c-.64,3.7-3.27,5.61-7.27,5.61-3.24,0-5.2-1.33-5.2-4.12,0-.39,.05-.85,.14-1.31l1.82-10.37h3.24l-1.77,10.07c-.07,.35-.09,.67-.09,.97,0,1.5,.83,2.12,2.28,2.12,2.05,0,3.24-.97,3.59-2.97l1.79-10.19Z" style="fill:#fff; stroke:#000; stroke-miterlimit:10; stroke-width:.25px;"/><path d="M110.58,30.73l2.69-15.27h6.74c2.62,0,4.12,1.79,4.12,4.14,0,3.15-2.44,5.59-5.84,5.59h-3.54l-.97,5.54h-3.2Zm7.66-8.14c2.16,0,3.06-1.22,3.06-2.67,0-1.31-.67-1.82-2.25-1.82h-3.04l-.8,4.48h3.04Z" style="fill:#fff; stroke:#000; stroke-miterlimit:10; stroke-width:.25px;"/><path d="M133.19,24.29l-1.13,6.44h-3.2l2.69-15.27h10.88l-.46,2.67h-7.68l-.62,3.47h6.71l-.48,2.69h-6.71Z" style="fill:#fff; stroke:#000; stroke-miterlimit:10; stroke-width:.25px;"/><path d="M142.09,25.02c0-5.96,3.38-10.07,8.99-10.07,3.96,0,6.02,2.41,6.02,6.46,0,6.19-3.22,9.84-8.9,9.84-3.98,0-6.12-2.25-6.12-6.23Zm11.82-3.2c0-2.99-1.15-4.05-3.33-4.05-3.38,0-5.31,2.76-5.31,6.9,0,2.9,1.24,3.84,3.43,3.84,2.76,0,5.22-2.14,5.22-6.69Z" style="fill:#fff; stroke:#000; stroke-miterlimit:10; stroke-width:.25px;"/><path d="M166.84,30.73l.69-3.93c.05-.28,.07-.53,.07-.74,0-1.04-.58-1.31-2.09-1.31h-3.4l-1.06,5.98h-3.1l2.69-15.27h7.75c2.51,0,4,1.56,4,3.72,0,1.91-1.13,3.61-2.99,4.23,.99,.34,1.45,.87,1.45,1.93,0,.3-.05,.67-.12,1.06l-.76,4.32h-3.13Zm-3.56-12.62l-.71,4.07h4c2,0,2.74-1.1,2.74-2.44s-.55-1.63-1.91-1.63h-4.12Z" style="fill:#fff; stroke:#000; stroke-miterlimit:10; stroke-width:.25px;"/><path d="M187.93,30.73l-.41-3.15h-5.63l-1.63,3.15h-3.47l8.14-15.27h3.7l2.69,15.27h-3.38Zm-1.7-11.84h-.02l-3.04,6.07h3.89l-.83-6.07Z" style="fill:#fff; stroke:#000; stroke-miterlimit:10; stroke-width:.25px;"/><path d="M52.62,55.73l-4.81-10.26-1.82,10.26h-2.97l2.69-15.27h3.29l4.44,9.82,1.72-9.82h2.99l-2.69,15.27h-2.85Z" style="fill:#fff; stroke:#000; stroke-miterlimit:10; stroke-width:.25px;"/><path d="M58.01,55.73l2.69-15.27h11.22l-.46,2.67h-8.12l-.57,3.27h7.47l-.48,2.69h-7.47l-.69,3.93h8.48l-.48,2.71h-11.59Z" style="fill:#fff; stroke:#000; stroke-miterlimit:10; stroke-width:.25px;"/><path d="M83.26,55.73l-.62-9.93-4.16,9.93h-2.99l-1.63-15.27h3.31l.76,9.89,3.86-9.89h3.36l.58,9.89,4.23-9.89h3.36l-6.97,15.27h-3.08Z" style="fill:#fff; stroke:#000; stroke-miterlimit:10; stroke-width:.25px;"/><path d="M102.46,44.97c0-.12,.02-.25,.02-.37,0-1.54-.87-1.95-2.69-1.95-2,0-3.06,.76-3.06,2.07,0,.76,.64,1.36,2.07,1.7,1.86,.46,3.17,.83,4.3,1.33,1.03,.48,1.79,1.29,1.79,3.01,0,3.61-3.22,5.5-6.69,5.5-3.98,0-5.96-1.43-5.96-4.16,0-.3,.02-.6,.07-.94h3.08c-.02,.18-.05,.34-.05,.51,0,1.45,1.22,2.02,2.9,2.02,2.21,0,3.47-.94,3.47-2.41,0-.78-.46-1.38-2.05-1.72-4.12-.9-5.93-1.68-5.93-4.3,0-2.97,2.28-5.29,6.53-5.29,3.36,0,5.27,1.66,5.27,4.23,0,.25-.02,.53-.05,.78h-3.04Z" style="fill:#fff; stroke:#000; stroke-miterlimit:10; stroke-width:.25px;"/><path d="M106.24,55.73l2.69-15.27h3.2l-2.21,12.49h7.57l-.48,2.78h-10.76Z" style="fill:#fff; stroke:#000; stroke-miterlimit:10; stroke-width:.25px;"/><path d="M119.14,55.73l2.69-15.27h11.22l-.46,2.67h-8.12l-.57,3.27h7.47l-.48,2.69h-7.47l-.69,3.93h8.48l-.48,2.71h-11.59Z" style="fill:#fff; stroke:#000; stroke-miterlimit:10; stroke-width:.25px;"/><path d="M136.92,55.73l2.23-12.6h-4.6l.46-2.67h12.42l-.46,2.67h-4.62l-2.23,12.6h-3.2Z" style="fill:#fff; stroke:#000; stroke-miterlimit:10; stroke-width:.25px;"/><path d="M151.15,55.73l2.23-12.6h-4.6l.46-2.67h12.42l-.46,2.67h-4.62l-2.23,12.6h-3.2Z" style="fill:#fff; stroke:#000; stroke-miterlimit:10; stroke-width:.25px;"/><path d="M161.11,55.73l2.69-15.27h11.22l-.46,2.67h-8.12l-.57,3.27h7.47l-.48,2.69h-7.47l-.69,3.93h8.48l-.48,2.71h-11.59Z" style="fill:#fff; stroke:#000; stroke-miterlimit:10; stroke-width:.25px;"/><path d="M183.63,55.73l.69-3.93c.05-.28,.07-.53,.07-.74,0-1.04-.58-1.31-2.09-1.31h-3.4l-1.06,5.98h-3.1l2.69-15.27h7.75c2.51,0,4,1.56,4,3.72,0,1.91-1.13,3.61-2.99,4.23,.99,.34,1.45,.87,1.45,1.93,0,.3-.05,.67-.12,1.06l-.76,4.32h-3.13Zm-3.56-12.62l-.71,4.07h4c2,0,2.74-1.1,2.74-2.44s-.55-1.63-1.91-1.63h-4.12Z" style="fill:#fff; stroke:#000; stroke-miterlimit:10; stroke-width:.25px;"/></g></g></svg>