<svg width="32" height="32" viewBox="0 0 32 32" fill="none" xmlns="http://www.w3.org/2000/svg">
<g clip-path="url(#clip0_151_16)">
<g clip-path="url(#clip1_151_16)">
<path d="M24.796 11.1724C23.8683 11.0184 15.7613 11.0596 15.7613 11.0596L13.1818 20.7717H7.71848L19.1035 -0.380371H16.8155L9.16957 13.684L8.38765 -0.380371H6.09965L7.18498 17.3663L4.20215 23.0597L12.5915 23.0185L10.3411 32.3804H13.411L15.5642 23.0047C15.5642 23.0047 20.1916 23.1294 21.727 23.0047C22.6354 22.9314 27.0592 21.6911 27.7421 16.0005C28.1931 12.2403 25.7475 11.331 24.796 11.1733V11.1724ZM24.7987 16.1361C24.1442 19.9705 22.0258 20.7506 21.2833 20.8185C19.9917 20.9367 16.2169 20.8221 16.2169 20.8221L18.2491 13.1753C18.2491 13.1753 22.3916 13.0039 23.4201 13.1835C24.2221 13.3238 25.1021 14.3587 24.7987 16.1361V16.1361Z" fill="#DD3123"/>
</g>
</g>
<defs>
<clipPath id="clip0_151_16">
<rect width="32" height="32" fill="white"/>
</clipPath>
<clipPath id="clip1_151_16">
<rect width="25.6667" height="33" fill="white" transform="translate(3.16602 -0.5)"/>
</clipPath>
</defs>
</svg>
