<svg width="25" height="25" viewBox="0 0 25 25" fill="none" xmlns="http://www.w3.org/2000/svg">
<path d="M7.23136 0.974121C3.55536 0.974121 0.564697 3.96479 0.564697 7.64079V18.3075C0.564697 21.9835 3.55536 24.9741 7.23136 24.9741H17.898C21.574 24.9741 24.5647 21.9835 24.5647 18.3075V7.64079C24.5647 3.96479 21.574 0.974121 17.898 0.974121H7.23136ZM7.23136 3.64079H17.898C20.1034 3.64079 21.898 5.43545 21.898 7.64079V18.3075C21.898 20.5128 20.1034 22.3075 17.898 22.3075H7.23136C5.02603 22.3075 3.23136 20.5128 3.23136 18.3075V7.64079C3.23136 5.43545 5.02603 3.64079 7.23136 3.64079ZM19.2314 4.97412C18.8777 4.97412 18.5386 5.1146 18.2886 5.36465C18.0385 5.61469 17.898 5.95383 17.898 6.30745C17.898 6.66108 18.0385 7.00022 18.2886 7.25026C18.5386 7.50031 18.8777 7.64079 19.2314 7.64079C19.585 7.64079 19.9241 7.50031 20.1742 7.25026C20.4242 7.00022 20.5647 6.66108 20.5647 6.30745C20.5647 5.95383 20.4242 5.61469 20.1742 5.36465C19.9241 5.1146 19.585 4.97412 19.2314 4.97412ZM12.5647 6.30745C8.8887 6.30745 5.89803 9.29812 5.89803 12.9741C5.89803 16.6501 8.8887 19.6408 12.5647 19.6408C16.2407 19.6408 19.2314 16.6501 19.2314 12.9741C19.2314 9.29812 16.2407 6.30745 12.5647 6.30745ZM12.5647 8.97412C14.77 8.97412 16.5647 10.7688 16.5647 12.9741C16.5647 15.1795 14.77 16.9741 12.5647 16.9741C10.3594 16.9741 8.5647 15.1795 8.5647 12.9741C8.5647 10.7688 10.3594 8.97412 12.5647 8.97412Z" fill="black"/>
</svg>
