<?xml version="1.0" encoding="UTF-8"?><svg id="a" xmlns="http://www.w3.org/2000/svg" width="231" height="73" viewBox="0 0 231 73"><rect x="-.2" y=".2" width="230.4" height="71.2" rx="33.2" ry="33.2" style="fill:#d40000; stroke:#000; stroke-miterlimit:10; stroke-width:2px;"/><g><g><path d="M66.4,32.8c0-.2,0-.4,0-.6,0-2.4-1.4-3.1-4.2-3.1s-4.8,1.2-4.8,3.2,1,2.1,3.2,2.7c2.9,.7,5,1.3,6.7,2.1,1.6,.8,2.8,2,2.8,4.7,0,5.7-5,8.6-10.5,8.6s-9.3-2.2-9.3-6.5,0-.9,.1-1.5h4.8c0,.3,0,.5,0,.8,0,2.3,1.9,3.2,4.5,3.2s5.4-1.5,5.4-3.8-.7-2.2-3.2-2.7c-6.4-1.4-9.3-2.6-9.3-6.7s3.6-8.3,10.2-8.3,8.2,2.6,8.2,6.6,0,.8,0,1.2h-4.8Z" style="stroke:#000; stroke-miterlimit:10; stroke-width:.2px;"/><path d="M72.3,49.6l4.2-23.9h5l-4.2,23.9h-5Z" style="stroke:#000; stroke-miterlimit:10; stroke-width:.2px;"/><path d="M99,49.6l.3-2.4c-1.5,2-4.5,3.2-7.7,3.2-5.7,0-8.8-5-8.8-10.6s5.3-14.9,14.2-14.9,9,3,9,7.4,0,.5,0,.8h-5v-.3c0-2.5-2.1-3.7-4.7-3.7-4.9,0-8.4,4.2-8.4,10.4s1.5,6.7,5.3,6.7,6.3-2.5,6.8-5.5h-5.3l.7-4h10l-2.3,12.8h-4.1Z" style="stroke:#000; stroke-miterlimit:10; stroke-width:.2px;"/><path d="M122.1,49.6l-7.5-16-2.8,16h-4.6l4.2-23.9h5.2l6.9,15.4,2.7-15.4h4.7l-4.2,23.9h-4.5Z" style="stroke:#000; stroke-miterlimit:10; stroke-width:.2px;"/><path d="M159.7,25.7h5.1l-2.8,15.9c-1,5.8-5.1,8.8-11.4,8.8s-8.1-2.1-8.1-6.4,0-1.3,.2-2l2.8-16.2h5.1l-2.8,15.8c-.1,.5-.1,1-.1,1.5,0,2.3,1.3,3.3,3.6,3.3,3.2,0,5.1-1.5,5.6-4.6l2.8-16h0Z" style="stroke:#000; stroke-miterlimit:10; stroke-width:.2px;"/><path d="M164.6,49.6l4.2-23.9h10.6c4.1,0,6.4,2.8,6.4,6.5s-3.8,8.8-9.1,8.8h-5.5l-1.5,8.7h-5Zm12-12.7c3.4,0,4.8-1.9,4.8-4.2s-1-2.8-3.5-2.8h-4.8l-1.3,7h4.8Z" style="stroke:#000; stroke-miterlimit:10; stroke-width:.2px;"/></g><g><path d="M65.4,30.8c0-.2,0-.4,0-.6,0-2.4-1.4-3.1-4.2-3.1s-4.8,1.2-4.8,3.2,1,2.1,3.2,2.7c2.9,.7,5,1.3,6.7,2.1,1.6,.8,2.8,2,2.8,4.7,0,5.7-5,8.6-10.5,8.6s-9.3-2.2-9.3-6.5,0-.9,.1-1.5h4.8c0,.3,0,.5,0,.8,0,2.3,1.9,3.2,4.5,3.2s5.4-1.5,5.4-3.8-.7-2.2-3.2-2.7c-6.4-1.4-9.3-2.6-9.3-6.7s3.6-8.3,10.2-8.3,8.2,2.6,8.2,6.6,0,.8,0,1.2h-4.8Z" style="fill:#fff; stroke:#000; stroke-miterlimit:10; stroke-width:.2px;"/><path d="M71.3,47.6l4.2-23.9h5l-4.2,23.9h-5Z" style="fill:#fff; stroke:#000; stroke-miterlimit:10; stroke-width:.2px;"/><path d="M98,47.6l.3-2.4c-1.5,2-4.5,3.2-7.7,3.2-5.7,0-8.8-5-8.8-10.6s5.3-14.9,14.2-14.9,9,3,9,7.4,0,.5,0,.8h-5v-.3c0-2.5-2.1-3.7-4.7-3.7-4.9,0-8.4,4.2-8.4,10.4s1.5,6.7,5.3,6.7,6.3-2.5,6.8-5.5h-5.3l.7-4h10l-2.3,12.8h-4.1Z" style="fill:#fff; stroke:#000; stroke-miterlimit:10; stroke-width:.2px;"/><path d="M121.1,47.6l-7.5-16-2.8,16h-4.6l4.2-23.9h5.2l6.9,15.4,2.7-15.4h4.7l-4.2,23.9h-4.5Z" style="fill:#fff; stroke:#000; stroke-miterlimit:10; stroke-width:.2px;"/><path d="M158.7,23.7h5.1l-2.8,15.9c-1,5.8-5.1,8.8-11.4,8.8s-8.1-2.1-8.1-6.4,0-1.3,.2-2l2.8-16.2h5.1l-2.8,15.8c-.1,.5-.1,1-.1,1.5,0,2.3,1.3,3.3,3.6,3.3,3.2,0,5.1-1.5,5.6-4.6l2.8-16h0Z" style="fill:#fff; stroke:#000; stroke-miterlimit:10; stroke-width:.2px;"/><path d="M163.6,47.6l4.2-23.9h10.6c4.1,0,6.4,2.8,6.4,6.5s-3.8,8.8-9.1,8.8h-5.5l-1.5,8.7h-5Zm12-12.7c3.4,0,4.8-1.9,4.8-4.2s-1-2.8-3.5-2.8h-4.8l-1.3,7h4.8Z" style="fill:#fff; stroke:#000; stroke-miterlimit:10; stroke-width:.2px;"/></g></g></svg>