<?xml version="1.0" encoding="UTF-8"?><svg id="Layer_2" xmlns="http://www.w3.org/2000/svg" viewBox="0 0 338.55 396.92"><defs><style>.cls-1{fill:#dd3123;}</style></defs><path class="cls-1" d="M289.44,149.31c-10.12-1.68-98.56-1.23-98.56-1.23l-28.14,105.95h-59.6L227.34,23.28h-24.96L118.97,176.71,110.44,23.28h-24.96l11.84,193.6-32.54,62.11,91.52-.45-24.55,102.13h33.49l23.49-102.28s50.48,1.36,67.23,0c9.91-.8,58.17-14.33,65.62-76.41,4.92-41.02-21.76-50.94-32.14-52.66Zm.03,54.15c-7.14,41.83-30.25,50.34-38.35,51.08-14.09,1.29-55.27,.04-55.27,.04l22.17-83.42s45.19-1.87,56.41,.09c8.75,1.53,18.35,12.82,15.04,32.21Z"/></svg>