<svg width="261" height="361" viewBox="0 0 261 361" fill="none" xmlns="http://www.w3.org/2000/svg">
<path d="M227.426 127.303C217.204 125.606 127.87 126.061 127.87 126.061L99.4458 233.081H39.2437L164.699 0H139.486L55.2336 154.98L46.6174 0H21.4052L33.3649 195.556L0.496094 258.294L92.9408 257.839L68.1427 361.001H101.971L125.698 257.688C125.698 257.688 176.688 259.061 193.608 257.688C203.618 256.879 252.365 243.213 259.891 180.505C264.86 139.071 237.911 129.051 227.426 127.313V127.303ZM227.456 182C220.244 224.253 196.901 232.849 188.719 233.597C174.486 234.9 132.89 233.637 132.89 233.637L155.284 149.374C155.284 149.374 200.931 147.485 212.264 149.465C221.103 151.01 230.8 162.415 227.456 182V182Z" fill="#DD3123"/>
</svg>
