<svg width="280" height="360" viewBox="0 0 280 360" fill="none" xmlns="http://www.w3.org/2000/svg">
<path d="M235.961 127.335C225.841 125.655 137.401 126.105 137.401 126.105L109.261 232.055H49.6608L173.861 1.30518H148.901L65.4908 154.735L56.9608 1.30518H32.0008L43.8408 194.905L11.3008 257.015L102.821 256.565L78.2708 358.695H111.761L135.251 256.415C135.251 256.415 185.731 257.775 202.481 256.415C212.391 255.615 260.651 242.085 268.101 180.005C273.021 138.985 246.341 129.065 235.961 127.345V127.335ZM235.991 181.485C228.851 223.315 205.741 231.825 197.641 232.565C183.551 233.855 142.371 232.605 142.371 232.605L164.541 149.185C164.541 149.185 209.731 147.315 220.951 149.275C229.701 150.805 239.301 162.095 235.991 181.485V181.485Z" fill="#DD3123"/>
</svg>
